# xmcd CD database file
#
# Track frame offsets:
#	182
#	16257
#	28157
#	48982
#	60257
#	75907
#	98057
#	111732
#	126407
#	139232
#	163682
#
# Disc length: 2409 seconds
#
# Revision: 0
# Processed by: cddbd v1.4PL0 Copyright (c) Steve Scherf et al.
# Submitted via: CDex 1.50beta10
#
DISCID=8d09670b
DTITLE=Roscoe Shelton - She'S The One
DYEAR=1995
DGENRE=Jazz
TTITLE0=She'S The One
TTITLE1=Look What You'Re Doin' To Me
TTITLE2=The Next Time (Excuse Me)
TTITLE3=Tell Me Her Name
TTITLE4=I'm A Dreamer
TTITLE5=Reach Out
TTITLE6=I Miss You So
TTITLE7=She'S My Woman
TTITLE8=Confusing To Me
TTITLE9=Run And Hide (You Fool)
TTITLE10=Too Soo To Burn The Night
EXTD=YEAR: 1995
EXTT0=
EXTT1=
EXTT2=
EXTT3=
EXTT4=
EXTT5=
EXTT6=
EXTT7=
EXTT8=
EXTT9=
EXTT10=
PLAYORDER=
